<svg width="842" height="404" viewBox="0 0 842 404" fill="none" xmlns="http://www.w3.org/2000/svg">
<g opacity="0.2">
<path d="M19.3924 335.554L18.2578 334.959C55.5481 257.796 123.244 204.211 194.918 195.094C224.547 191.324 254.761 194.83 283.982 198.217C297.75 199.818 311.978 201.458 325.976 202.332C417.092 207.995 508.425 181.136 583.133 126.69C600.573 113.975 617.325 99.6064 633.503 85.7139C654.73 67.4948 676.684 48.6539 700.473 33.3324C722.962 18.8445 746.764 8.564 769.317 3.58915C795.49 -2.17956 819.853 -0.988769 841.704 7.12183L841.271 8.36554C817.66 -0.393375 768.067 -8.64951 701.136 34.457C677.41 49.7388 655.508 68.5533 634.307 86.7459C618.103 100.652 601.338 115.047 583.847 127.788C508.909 182.406 417.283 209.357 325.874 203.668C311.851 202.795 297.597 201.141 283.816 199.54C254.659 196.153 224.521 192.66 195.046 196.404C123.78 205.467 56.466 258.788 19.3669 335.554L19.3924 335.554Z" fill="#00160A"/>
<path d="M18.5224 338.809L17.375 338.213C47.7299 274.982 100.842 226.041 159.448 207.306C169.864 203.972 180.522 201.564 191.129 200.135C220.464 196.192 250.436 199.381 279.414 202.464C292.75 203.879 306.531 205.348 320.083 206.102C330.894 206.697 341.896 206.856 352.784 206.552C431.929 204.329 510.308 177.841 573.466 131.982C591.863 118.619 609.405 103.363 626.361 88.6242C646.122 71.4371 666.558 53.6547 688.397 38.8757C710.108 24.1761 732.941 13.459 754.461 7.88872C779.398 1.41877 802.486 1.6437 823.062 8.5635L822.667 9.82045C800.446 2.35817 753.556 -3.66193 689.085 39.9871C667.323 54.7264 646.912 72.4691 627.177 89.6429C610.195 104.409 592.64 119.677 574.193 133.08C510.831 179.098 432.209 205.665 352.822 207.901C341.896 208.206 330.869 208.06 320.019 207.452C306.442 206.697 292.635 205.229 279.3 203.813C250.385 200.743 220.502 197.555 191.307 201.484C180.777 202.9 170.182 205.295 159.83 208.603C101.555 227.232 48.7371 275.922 18.5224 338.835L18.5224 338.809Z" fill="#00160A"/>
<path d="M17.6552 342.064L16.5078 341.481C46.0851 279.455 98.3043 231.214 156.209 212.426C166.447 209.105 176.914 206.671 187.342 205.189C216.409 201.061 246.14 203.932 274.901 206.697C287.777 207.941 301.1 209.224 314.206 209.86C324.851 210.376 335.675 210.481 346.384 210.137C425.006 207.676 502.213 181.797 563.789 137.235C583.219 123.183 601.59 106.962 619.362 91.2703C637.592 75.1682 656.448 58.5236 676.298 44.3797C738.754 -0.0631805 783.362 3.74735 804.398 9.97914L804.041 11.2493C783.222 5.08368 739.047 1.32607 677.012 45.4911C657.213 59.5821 638.383 76.2134 620.177 92.2891C602.393 107.994 583.996 124.242 564.503 138.333C502.723 183.027 425.273 209.013 346.409 211.474C335.675 211.805 324.813 211.712 314.129 211.196C300.998 210.548 287.663 209.264 274.774 208.02C246.089 205.255 216.435 202.397 187.508 206.499C177.143 207.968 166.74 210.389 156.579 213.683C99.0054 232.365 47.0667 280.354 17.6424 342.064L17.6552 342.064Z" fill="#00160A"/>
<path d="M16.7958 345.324L15.6484 344.742C44.4353 283.932 95.7748 236.38 152.979 217.539C163.025 214.231 173.313 211.77 183.576 210.249C212.388 205.935 241.902 208.476 270.434 210.937C282.851 212.008 295.689 213.107 308.323 213.649C318.816 214.086 329.461 214.125 339.991 213.768C418.103 211.069 494.15 185.771 554.133 142.546C574.684 127.754 593.935 110.447 612.549 93.7235C629.173 78.7857 646.371 63.3319 664.22 49.9554C689.985 30.6382 740.024 -0.0444855 785.741 11.44L785.435 12.7234C740.215 1.37123 690.546 31.8554 664.959 51.0271C647.162 64.3772 629.976 79.8045 613.377 94.729C594.738 111.479 575.462 128.799 554.847 143.631C494.66 187.015 418.371 212.392 340.017 215.091C329.461 215.462 318.777 215.422 308.259 214.972C295.6 214.443 282.749 213.332 270.319 212.26C241.851 209.812 212.414 207.272 183.742 211.559C173.555 213.08 163.331 215.515 153.348 218.809C96.4632 237.544 45.4042 284.845 16.7703 345.324L16.7958 345.324Z" fill="#00160A"/>
<path d="M15.9208 348.557L14.7734 347.975C42.7698 288.383 93.2297 241.518 149.732 222.638C159.6 219.343 169.71 216.869 179.781 215.281C208.364 210.783 237.661 212.992 266.002 215.136C277.935 216.036 290.276 216.975 302.425 217.398C312.764 217.756 323.244 217.742 333.571 217.345C412.307 214.355 485.231 190.315 544.436 147.79C566.198 132.178 586.38 113.694 605.898 95.8189C620.84 82.1248 636.291 67.9676 652.113 55.4644C676.833 35.9354 724.641 4.41925 767.056 12.8474L766.814 14.144C724.87 5.8085 677.432 37.113 652.878 56.5229C637.095 68.9997 621.668 83.1303 606.74 96.8112C587.196 114.713 566.989 133.236 545.163 148.888C485.74 191.545 412.588 215.678 333.609 218.682C323.244 219.079 312.739 219.092 302.374 218.735C290.212 218.311 277.858 217.372 265.9 216.472C237.636 214.329 208.403 212.119 179.96 216.604C169.952 218.179 159.919 220.64 150.115 223.908C93.9309 242.696 43.7642 289.295 15.9081 348.57L15.9208 348.557Z" fill="#00160A"/>
<path d="M15.0536 351.815L13.9062 351.233C41.125 292.858 90.6924 246.695 146.507 227.748C156.183 224.467 166.114 221.966 176.008 220.326C204.374 215.615 233.492 217.507 261.654 219.333C273.09 220.074 284.908 220.842 296.548 221.159C306.721 221.437 317.022 221.371 327.183 220.948C405.423 217.706 477.211 194.234 534.785 153.073C557.886 136.574 579.049 116.754 599.511 97.5819C612.68 85.2373 626.296 72.4827 640.039 61.0114C663.727 41.2576 709.304 8.92104 748.404 14.2928L748.239 15.6027C709.61 10.2971 664.364 42.4219 640.843 62.0434C627.112 73.4882 613.522 86.2429 600.365 98.5609C579.878 117.759 558.689 137.619 535.512 154.158C477.747 195.465 405.716 219.016 327.234 222.271C317.048 222.694 306.721 222.76 296.522 222.482C284.87 222.165 273.026 221.397 261.59 220.656C233.492 218.831 204.437 216.952 176.224 221.636C166.395 223.263 156.527 225.75 146.915 229.005C91.4318 247.846 42.1449 293.758 15.0664 351.815L15.0536 351.815Z" fill="#00160A"/>
<path d="M14.1864 355.068L13.039 354.499C39.4674 297.341 88.1551 251.866 143.268 232.867C152.753 229.598 162.506 227.071 172.221 225.378C200.383 220.469 229.348 222.017 257.37 223.525C268.283 224.108 279.566 224.716 290.657 224.928C300.678 225.126 310.813 224.994 320.77 224.544C398.538 221.038 469.192 198.148 525.108 158.336C549.688 140.872 571.884 119.517 593.34 98.8764C604.623 88.027 616.288 76.7939 627.94 66.5267C650.608 46.5479 693.954 13.3778 729.714 15.6932L729.638 17.0163C703.464 15.3228 667.64 33.264 628.769 67.5322C617.142 77.7862 605.49 88.9929 594.207 99.8423C572.712 120.522 550.479 141.89 525.822 159.421C469.715 199.366 398.831 222.348 320.821 225.854C310.826 226.304 300.678 226.436 290.619 226.238C279.502 226.013 268.207 225.417 257.294 224.822C229.348 223.327 200.447 221.779 172.425 226.661C162.761 228.342 153.085 230.842 143.664 234.097C88.8818 252.991 40.4745 298.201 14.1864 355.041L14.1864 355.068Z" fill="#00160A"/>
<path d="M13.3271 358.311L12.1797 357.742C37.8303 301.815 85.6256 257.028 140.038 237.962C149.344 234.707 158.906 232.167 168.442 230.407C196.438 225.273 225.276 226.491 253.171 227.668C263.523 228.105 274.232 228.555 284.775 228.674C294.643 228.793 304.599 228.608 314.378 228.131C391.687 224.36 461.219 202.053 515.44 163.604C541.677 145.041 564.969 121.953 587.483 99.632C596.764 90.4232 606.364 80.9101 615.849 72.0586C637.497 51.8549 678.65 17.8645 711.032 17.1368L711.058 18.4599C679.096 19.1743 638.224 52.9663 616.704 73.0509C607.231 81.8892 597.644 91.4023 588.363 100.598C565.797 122.958 542.48 146.086 516.154 164.702C461.729 203.283 391.967 225.684 314.429 229.468C304.625 229.944 294.643 230.129 284.75 230.01C274.194 229.891 263.472 229.441 253.107 229.004C225.289 227.827 196.515 226.623 168.659 231.73C159.186 233.463 149.689 235.99 140.433 239.232C86.3523 258.192 38.8247 302.714 13.3143 358.324L13.3271 358.311Z" fill="#00160A"/>
<path d="M12.4599 361.566L11.3125 360.997C36.1854 306.287 83.1011 262.202 136.799 243.07C145.915 239.828 155.298 237.261 164.655 235.462C192.512 230.09 221.26 230.963 249.065 231.81C258.831 232.101 268.941 232.419 278.885 232.445C288.612 232.472 298.391 232.234 307.978 231.731C384.84 227.682 453.238 205.957 505.776 168.87C533.874 149.077 558.326 123.991 581.963 99.7121C589.115 92.3689 596.522 84.7743 603.763 77.5899C649.468 32.3664 677.158 20.5379 692.329 18.5665L692.482 19.8763C677.502 21.8213 650.092 33.5704 604.643 78.5425C597.402 85.7137 590.007 93.3083 582.855 100.638C559.168 124.957 534.69 150.096 506.49 169.942C453.761 207.148 385.134 228.965 308.041 233.027C298.442 233.53 288.625 233.768 278.885 233.742C268.928 233.702 258.818 233.398 249.04 233.107C221.311 232.26 192.626 231.4 164.898 236.745C155.591 238.531 146.272 241.085 137.22 244.313C83.8278 263.326 37.1926 307.161 12.4726 361.553L12.4599 361.566Z" fill="#00160A"/>
<path d="M11.5898 364.824L10.4297 364.268C34.5249 310.788 80.5482 267.404 133.545 248.193C142.482 244.964 151.674 242.371 160.866 240.519C188.633 234.896 217.318 235.425 245.072 235.928C254.213 236.1 263.672 236.272 272.979 236.219C282.553 236.166 292.166 235.875 301.549 235.345C379.087 230.953 444.54 210.365 496.083 174.165C526.336 152.969 552 125.502 576.822 98.9472C581.705 93.7209 586.74 88.3227 591.661 83.1494C615.706 57.8782 649.439 26.4149 673.611 20.0508L673.93 21.3342C650.051 27.6322 616.509 58.9367 592.579 84.0888C587.658 89.2621 582.622 94.6471 577.74 99.8734C552.879 126.481 527.165 153.988 496.797 175.263C445.063 211.609 379.393 232.263 301.626 236.668C292.217 237.198 282.579 237.489 272.992 237.542C263.672 237.595 254.2 237.423 245.046 237.251C217.356 236.748 188.735 236.219 161.095 241.815C151.967 243.668 142.826 246.221 133.953 249.436C81.2749 268.515 35.5193 311.648 11.5643 364.811L11.5898 364.824Z" fill="#00160A"/>
<path d="M10.7226 368.061L9.56247 367.505C32.8801 315.256 78.0237 272.559 130.319 253.295C139.065 250.067 148.078 247.473 157.092 245.555C184.795 239.667 213.505 239.826 241.247 239.998C249.725 240.051 258.483 240.104 267.102 239.972C276.548 239.839 285.983 239.495 295.162 238.926C372.292 234.243 436.648 214.211 486.42 179.413C519.171 156.577 546.122 126.278 572.181 96.9711C574.667 94.1794 577.127 91.4141 579.575 88.662C612.913 51.3639 638.258 28.7654 654.883 21.4883L655.38 22.7056C638.921 29.9032 613.729 52.3959 580.519 89.5617C578.071 92.3006 575.598 95.0791 573.124 97.8708C547.015 127.23 520.013 157.582 487.134 180.512C437.158 215.441 372.598 235.539 295.238 240.236C286.046 240.792 276.587 241.149 267.127 241.281C258.496 241.4 249.725 241.348 241.247 241.308C213.556 241.149 184.935 240.977 157.347 246.838C148.397 248.744 139.448 251.324 130.753 254.526C78.7759 273.684 33.9127 316.116 10.7354 368.047L10.7226 368.061Z" fill="#00160A"/>
<path d="M9.85542 371.319L8.69528 370.763C31.2352 319.758 75.4864 277.749 127.081 258.406C135.635 255.204 144.458 252.571 153.305 250.599C181.021 244.42 209.77 244.222 237.588 244.024C245.326 243.971 253.332 243.918 261.224 243.732C270.518 243.521 279.786 243.111 288.761 242.528C366.593 237.461 428.081 218.541 476.756 184.696C512.503 159.901 541.724 125.011 567.502 94.2224C599.896 55.5483 622.36 32.2485 636.167 23.0001L636.855 24.1115C623.15 33.2938 600.776 56.5009 568.458 95.0824C542.629 125.924 513.357 160.893 477.47 185.781C428.603 219.758 366.912 238.758 288.851 243.838C279.863 244.42 270.569 244.831 261.262 245.042C253.371 245.228 245.364 245.28 237.613 245.333C209.859 245.532 181.174 245.73 153.586 251.883C144.802 253.841 136.031 256.447 127.527 259.636C76.2513 278.861 32.2679 320.604 9.86817 371.306L9.85542 371.319Z" fill="#00160A"/>
<path d="M8.98824 374.572L7.82809 374.029C29.5903 324.254 72.9619 282.947 123.842 263.524C132.206 260.335 140.849 257.689 149.519 255.665C177.298 249.168 206.2 248.586 234.145 248.031C241.081 247.898 248.258 247.753 255.334 247.515C264.526 247.21 273.616 246.747 282.361 246.139C359.836 240.74 420.253 222.376 467.092 189.973C502.648 165.443 531.32 130.553 555.416 99.7642C581.551 66.3692 604.269 37.6712 617.439 24.5196L618.318 25.4722C605.2 38.5709 582.52 67.2424 556.397 100.598C532.251 131.452 503.502 166.435 467.793 191.071C420.775 223.593 360.142 242.037 282.451 247.448C273.692 248.057 264.577 248.52 255.372 248.824C248.296 249.049 241.119 249.195 234.171 249.34C206.289 249.896 177.451 250.478 149.799 256.948C141.181 258.959 132.601 261.592 124.276 264.768C73.714 284.072 30.6102 325.127 8.98824 374.572Z" fill="#00160A"/>
<path d="M8.12105 377.814L6.96091 377.271C27.9582 328.74 70.4373 288.121 120.604 268.618C128.789 265.443 137.241 262.77 145.732 260.693C173.665 253.839 202.808 252.873 230.983 251.934C237.128 251.736 243.286 251.524 249.444 251.259C258.508 250.876 267.432 250.36 275.961 249.724C354.175 243.916 411.838 226.597 457.415 195.239C493.239 170.656 520.943 135.978 543.317 105.308C570.179 68.4865 592.502 35.3429 598.71 26.0547L599.756 26.8089C593.547 36.0971 571.211 69.2671 544.337 106.102C521.899 136.864 494.106 171.648 458.116 196.337C412.335 227.827 354.481 245.213 276.05 251.034C267.509 251.669 258.584 252.185 249.495 252.569C243.337 252.834 237.179 253.032 231.022 253.244C202.91 254.183 173.843 255.149 146.025 261.976C137.585 264.04 129.184 266.7 121.05 269.862C71.2022 289.245 28.9781 329.6 8.12105 377.814Z" fill="#00160A"/>
<path d="M7.25386 381.069L6.09372 380.526C26.3134 333.252 67.9128 293.321 117.365 273.726C125.359 270.564 133.62 267.878 141.945 265.734C170.146 258.47 199.646 257.094 228.178 255.771C233.303 255.533 238.428 255.295 243.553 255.017C252.567 254.541 261.312 253.972 269.548 253.31C371.908 245.213 420.265 219.294 447.739 200.492C476.589 180.805 503.119 152.318 531.218 110.826C553.312 78.2116 572.014 46.325 580.008 27.5899L581.168 28.1324C573.136 46.9468 554.395 78.9261 532.25 111.593C504.05 153.218 477.418 181.823 448.427 201.604C420.838 220.471 372.291 246.51 269.637 254.634C261.389 255.282 252.63 255.864 243.604 256.34C238.479 256.618 233.342 256.856 228.229 257.094C199.761 258.418 170.337 259.794 142.251 267.018C133.977 269.148 125.754 271.821 117.812 274.956C68.6777 294.419 27.3333 334.086 7.25386 381.056L7.25386 381.069Z" fill="#00160A"/>
<path d="M6.3838 384.308L5.21091 383.779C24.9588 337.06 64.6587 298.809 114.111 278.844C121.914 275.695 129.996 272.982 138.143 270.786C166.764 263.059 196.788 261.26 225.817 259.513C229.756 259.275 233.695 259.037 237.635 258.785C246.75 258.203 255.088 257.595 263.12 256.92C363.988 248.426 409.591 225.126 438.046 205.782C467.343 185.909 493.861 156.669 519.116 116.394C540.572 82.1915 556.343 49.5771 561.327 29.1485L562.564 29.4793C557.554 50.027 541.707 82.8001 520.187 117.121C494.842 157.555 468.21 186.928 438.747 206.907C384.335 243.901 316.372 253.784 263.234 258.256C255.203 258.931 246.852 259.54 237.724 260.122C233.785 260.373 229.832 260.611 225.893 260.849C196.928 262.596 166.968 264.395 138.462 272.083C130.353 274.266 122.322 276.965 114.57 280.087C65.4236 299.934 25.9787 337.933 6.37105 384.321L6.3838 384.308Z" fill="#00160A"/>
<path d="M5.52442 387.566L4.35153 387.037C23.3218 341.601 62.1547 304.026 110.881 283.954C118.492 280.818 126.396 278.093 134.364 275.83C163.597 267.561 194.373 265.298 224.129 263.115L231.752 262.546C240.995 261.858 249.167 261.184 256.727 260.509C356.716 251.565 399.616 230.488 428.377 211.038C457.917 191.126 484.37 161.144 507.025 121.914C527.398 86.6537 540.389 53.391 542.671 30.6602L543.933 30.7925C541.625 53.7086 528.57 87.1697 508.109 122.589C485.352 161.991 458.758 192.118 429.066 212.136C377.561 246.947 313.09 256.778 256.829 261.805C249.269 262.48 241.084 263.142 231.842 263.843L224.218 264.412C194.526 266.595 163.814 268.858 134.696 277.087C126.766 279.323 118.9 282.049 111.34 285.158C62.9196 305.097 24.3417 342.422 5.49893 387.539L5.52442 387.566Z" fill="#00160A"/>
<path d="M4.65724 390.819L3.48434 390.303C21.6769 346.138 59.6557 309.25 107.655 289.072C115.062 285.963 122.775 283.211 130.603 280.896C160.741 271.965 192.575 269.213 223.351 266.54L225.888 266.315C233.091 265.693 241.632 264.939 250.34 264.119C305.109 258.919 367.82 250.517 418.726 216.329C448.316 196.495 474.681 165.773 494.952 127.482C513.807 91.8647 524.414 57.1334 524.044 32.2062L525.319 32.1797C525.689 57.3451 515.031 92.3146 496.073 128.118C475.701 166.607 449.196 197.488 419.415 217.44C368.254 251.788 305.377 260.229 250.455 265.442C241.734 266.262 233.193 267.016 225.99 267.638L223.453 267.863C192.728 270.523 160.958 273.261 130.947 282.166C123.17 284.468 115.496 287.207 108.139 290.303C60.4461 310.348 22.7351 346.984 4.66998 390.832L4.65724 390.819Z" fill="#00160A"/>
<path d="M3.78224 394.065L2.60934 393.549C20.037 350.667 57.1361 314.454 104.409 294.171C111.625 291.075 119.159 288.309 126.808 285.928C155.85 276.904 184.956 273.53 219.99 270.077L227.613 269.323C233.057 268.794 238.488 268.251 243.932 267.709C301.123 261.953 360.979 253.658 409.055 221.586C446.893 196.394 470.083 159.519 482.87 133.017C500.183 97.135 508.406 60.9351 505.423 33.6925L506.685 33.5469C509.707 61.0277 501.433 97.5055 484.005 133.613C471.141 160.26 447.824 197.36 409.743 222.71C361.425 254.928 301.391 263.263 244.059 269.032C238.628 269.574 233.185 270.117 227.741 270.646L220.117 271.4C185.147 274.854 156.105 278.214 127.178 287.198C119.567 289.566 112.071 292.318 104.906 295.401C57.952 315.552 21.0951 351.514 3.79498 394.065L3.78224 394.065Z" fill="#00160A"/>
<path d="M2.92286 397.317L1.74997 396.814C18.4127 355.229 54.6448 319.678 101.178 299.289C108.19 296.219 115.546 293.427 123.03 290.98C153.079 281.189 184.504 277.14 214.107 273.845C221.323 273.038 228.539 272.271 235.742 271.504L237.527 271.318C287.834 265.96 350.443 259.278 399.386 226.875C429.154 207.188 454.512 175.83 470.779 138.572C486.779 101.935 492.465 65.2194 486.792 35.185L488.041 34.9336C493.765 65.2326 488.041 102.24 471.939 139.114C455.57 176.598 430.047 208.154 400.074 227.987C350.877 260.562 288.101 267.256 237.667 272.628L235.882 272.813C228.679 273.581 221.451 274.348 214.247 275.155C184.696 278.45 153.346 282.472 123.412 292.236C115.967 294.658 108.649 297.449 101.675 300.493C55.4608 320.749 19.4581 356.036 2.93561 397.304L2.92286 397.317Z" fill="#00160A"/>
<path d="M2.0528 400.555L0.867156 400.052C16.7649 359.764 52.1429 324.887 97.924 304.379C104.732 301.336 111.897 298.518 119.227 296.004C148.868 285.869 179.504 281.159 208.201 277.586C216.501 276.554 224.813 275.602 231.111 274.887L233.992 274.556C288.06 268.47 343.976 262.159 389.706 232.112C419.641 212.45 444.144 181.185 458.69 144.086C473.122 107.277 476.488 69.1191 468.163 36.637L469.399 36.293C477.801 69.0397 474.422 107.502 459.876 144.575C445.227 181.926 420.558 213.403 390.395 233.223C344.422 263.442 288.353 269.754 234.145 275.866L231.264 276.197C224.953 276.912 216.654 277.864 208.367 278.896C179.733 282.469 149.174 287.166 119.635 297.261C112.343 299.748 105.216 302.553 98.4467 305.583C52.9716 325.959 17.8358 360.558 2.06555 400.542L2.0528 400.555Z" fill="#00160A"/>
<path d="M1.18561 403.813L-3.18887e-05 403.324C15.3623 363.763 48.981 330.447 94.6855 309.516C136.859 290.199 183.915 283.385 224.711 278.516C228.064 278.119 231.417 277.722 234.782 277.325C285.178 271.411 337.283 265.298 380.042 237.42C410.066 217.852 433.69 186.706 446.591 149.725C459.48 112.758 460.526 73.1312 449.536 38.1485L450.747 37.7383C461.826 72.9989 460.781 112.93 447.79 150.175C434.799 187.42 410.984 218.804 380.731 238.532C337.729 266.581 285.472 272.707 234.935 278.635C231.57 279.032 228.217 279.429 224.864 279.826C184.17 284.681 137.228 291.482 95.2082 310.72C49.8096 331.506 16.4205 364.57 1.18561 403.813Z" fill="#00160A"/>
</g>
</svg>
