<svg width="126" height="58" viewBox="0 0 126 58" fill="none" xmlns="http://www.w3.org/2000/svg">
<g clip-path="url(#clip0_4203_7736)">
<mask id="mask0_4203_7736" style="mask-type:luminance" maskUnits="userSpaceOnUse" x="0" y="9" width="40" height="41">
<path d="M6.42359 13.2378C5.56568 13.2378 4.86863 13.9405 4.86863 14.8054C4.86863 15.6703 5.56568 16.373 6.42359 16.373C7.2815 16.373 7.97855 15.6703 7.97855 14.8054C7.97855 13.9405 7.2815 13.2378 6.42359 13.2378ZM27.0563 29.0108L22.252 37.4H17.941H12.9223C12.3539 36.6216 11.4424 36.1135 10.4129 36.1135C9.38338 36.1135 8.47185 36.6216 7.90348 37.4H7.86059V37.4541C7.5067 37.9622 7.30295 38.5784 7.30295 39.2486C7.30295 39.9189 7.5067 40.5351 7.86059 41.0432V41.0973H7.90348C8.47185 41.8757 9.38338 42.3838 10.4129 42.3838C11.4424 42.3838 12.3539 41.8757 12.9223 41.0973H24.3432L24.8794 40.1676L31.2708 29.0108L24.3432 16.9243H9.31903C8.66488 17.8324 7.61394 18.4162 6.42359 18.4162C4.4504 18.4162 2.84182 16.8054 2.84182 14.8054C2.84182 12.8162 4.43968 11.1946 6.42359 11.1946C7.61394 11.1946 8.6756 11.7784 9.31903 12.6865H26.7775L31.4424 20.8378L36.118 29L31.4424 37.1622V37.173L26.7775 45.3243H3.66756V30.8486H14.992C15.5603 31.627 16.4718 32.1351 17.5013 32.1351C19.2172 32.1351 20.6113 30.7297 20.6113 29C20.6113 27.2703 19.2172 25.8649 17.5013 25.8649C16.4718 25.8649 15.5603 26.373 14.992 27.1514H3.66756H2.42359C1.09383 27.1622 0 28.2541 0 29.6054V30.8595V46.5784C0 47.9189 1.09383 49.0216 2.42359 49.0216H27.4745C28.3646 49.0216 29.126 48.5784 29.5764 47.8L34.6059 39.0216L39.6354 30.2432C40.0751 29.4649 40.0751 28.5784 39.6354 27.8L29.5764 10.2216C29.1367 9.44324 28.3753 9 27.4745 9H2.42359C1.09383 9 0 10.1027 0 11.4432V18.1676C0 19.5081 1.09383 20.6108 2.42359 20.6108H3.66756H11.5282H17.9517H22.2627L27.0563 29.0108Z" fill="white"/>
</mask>
<g mask="url(#mask0_4203_7736)">
<path d="M40.0858 9H0V49.0108H40.0858V9Z" fill="#317EFE"/>
</g>
</g>
<path d="M66.2 40L60.02 30.64H59.39L51.08 19H55.16L61.37 27.82H62L70.22 40H66.2ZM50.72 40L58.7 28.78L61.07 30.79L54.59 40H50.72ZM62.24 29.95L59.87 27.94L65.99 19H69.86L62.24 29.95ZM72.2499 40V18.4H75.5499V40H72.2499ZM85.2526 40.3C83.9526 40.3 82.7726 39.97 81.7126 39.31C80.6726 38.65 79.8426 37.76 79.2226 36.64C78.6226 35.5 78.3226 34.23 78.3226 32.83C78.3226 31.41 78.6226 30.14 79.2226 29.02C79.8426 27.88 80.6726 26.98 81.7126 26.32C82.7726 25.64 83.9526 25.3 85.2526 25.3C86.3526 25.3 87.3226 25.54 88.1626 26.02C89.0226 26.48 89.7026 27.12 90.2026 27.94C90.7026 28.76 90.9526 29.69 90.9526 30.73V34.87C90.9526 35.91 90.7026 36.84 90.2026 37.66C89.7226 38.48 89.0526 39.13 88.1926 39.61C87.3326 40.07 86.3526 40.3 85.2526 40.3ZM85.7926 37.18C87.0126 37.18 87.9926 36.77 88.7326 35.95C89.4926 35.13 89.8726 34.08 89.8726 32.8C89.8726 31.94 89.7026 31.18 89.3626 30.52C89.0226 29.86 88.5426 29.35 87.9226 28.99C87.3226 28.61 86.6126 28.42 85.7926 28.42C84.9926 28.42 84.2826 28.61 83.6626 28.99C83.0626 29.35 82.5826 29.86 82.2226 30.52C81.8826 31.18 81.7126 31.94 81.7126 32.8C81.7126 33.66 81.8826 34.42 82.2226 35.08C82.5826 35.74 83.0626 36.26 83.6626 36.64C84.2826 37 84.9926 37.18 85.7926 37.18ZM89.6626 40V36.13L90.2326 32.62L89.6626 29.14V25.6H92.9626V40H89.6626ZM104.335 40.3C103.235 40.3 102.255 40.07 101.395 39.61C100.535 39.13 99.8549 38.48 99.3549 37.66C98.8749 36.84 98.6349 35.91 98.6349 34.87V30.73C98.6349 29.69 98.8849 28.76 99.3849 27.94C99.8849 27.12 100.565 26.48 101.425 26.02C102.285 25.54 103.255 25.3 104.335 25.3C105.635 25.3 106.805 25.64 107.845 26.32C108.905 26.98 109.735 27.88 110.335 29.02C110.955 30.14 111.265 31.41 111.265 32.83C111.265 34.23 110.955 35.5 110.335 36.64C109.735 37.76 108.905 38.65 107.845 39.31C106.805 39.97 105.635 40.3 104.335 40.3ZM103.795 37.18C104.595 37.18 105.295 37 105.895 36.64C106.515 36.26 106.995 35.74 107.335 35.08C107.695 34.42 107.875 33.66 107.875 32.8C107.875 31.94 107.695 31.18 107.335 30.52C106.995 29.86 106.515 29.35 105.895 28.99C105.295 28.61 104.595 28.42 103.795 28.42C102.995 28.42 102.285 28.61 101.665 28.99C101.045 29.35 100.565 29.86 100.225 30.52C99.8849 31.18 99.7149 31.94 99.7149 32.8C99.7149 33.66 99.8849 34.42 100.225 35.08C100.565 35.74 101.045 36.26 101.665 36.64C102.285 37 102.995 37.18 103.795 37.18ZM96.6249 40V18.4H99.9249V29.14L99.3549 32.62L99.9249 36.13V40H96.6249ZM118.737 40.3C117.937 40.3 117.167 40.2 116.427 40C115.687 39.78 115.007 39.48 114.387 39.1C113.767 38.7 113.227 38.22 112.767 37.66L114.867 35.56C115.367 36.14 115.937 36.58 116.577 36.88C117.237 37.16 117.977 37.3 118.797 37.3C119.537 37.3 120.097 37.19 120.477 36.97C120.857 36.75 121.047 36.43 121.047 36.01C121.047 35.57 120.867 35.23 120.507 34.99C120.147 34.75 119.677 34.55 119.097 34.39C118.537 34.21 117.937 34.03 117.297 33.85C116.677 33.67 116.077 33.43 115.497 33.13C114.937 32.81 114.477 32.38 114.117 31.84C113.757 31.3 113.577 30.6 113.577 29.74C113.577 28.82 113.787 28.03 114.207 27.37C114.647 26.71 115.257 26.2 116.037 25.84C116.837 25.48 117.787 25.3 118.887 25.3C120.047 25.3 121.067 25.51 121.947 25.93C122.847 26.33 123.597 26.94 124.197 27.76L122.097 29.86C121.677 29.34 121.197 28.95 120.657 28.69C120.117 28.43 119.497 28.3 118.797 28.3C118.137 28.3 117.627 28.4 117.267 28.6C116.907 28.8 116.727 29.09 116.727 29.47C116.727 29.87 116.907 30.18 117.267 30.4C117.627 30.62 118.087 30.81 118.647 30.97C119.227 31.13 119.827 31.31 120.447 31.51C121.087 31.69 121.687 31.95 122.247 32.29C122.827 32.61 123.297 33.05 123.657 33.61C124.017 34.15 124.197 34.86 124.197 35.74C124.197 37.14 123.707 38.25 122.727 39.07C121.747 39.89 120.417 40.3 118.737 40.3Z" fill="white"/>
<defs>
<clipPath id="clip0_4203_7736">
<rect width="40" height="40" fill="white" transform="translate(0 9)"/>
</clipPath>
</defs>
</svg>
