<svg width="1188" height="352" viewBox="0 0 1188 352" fill="none" xmlns="http://www.w3.org/2000/svg">
<path opacity="0.04" d="M320.058 299L311 298.396C314.019 254.26 336.965 211.09 374.071 179.935C411.177 148.78 457.673 133.625 501.633 138.304C525.062 140.81 548.46 148.085 571.074 155.12C611.049 167.557 648.819 179.271 685.623 166.32C722.427 153.369 746.007 119.285 768.923 86.2585C773.572 79.5868 778.373 72.6735 783.173 66.0923C812.943 25.3373 861.673 -12.3989 909.105 3.87294C936.881 13.4126 954.393 38.0468 971.119 61.8961C987.845 85.7453 1003.55 107.813 1028.48 116.508C1047.02 122.998 1066.74 120.372 1087.6 117.625C1097.7 116.102 1107.86 115.094 1118.06 114.606C1140.13 113.972 1163.65 122.878 1176.61 136.734C1180.64 140.802 1183.74 145.704 1185.68 151.097C1187.62 156.49 1188.36 162.242 1187.84 167.95L1178.78 167.074C1179.18 162.646 1178.59 158.185 1177.06 154.01C1175.53 149.835 1173.1 146.049 1169.93 142.923C1158.64 130.848 1137.9 123.089 1118.24 123.663C1108.37 124.161 1098.52 125.169 1088.75 126.682C1067.61 129.459 1046.03 132.357 1025.34 125.142C997.748 115.512 980.418 90.968 963.631 67.2093C946.845 43.4506 931.084 21.1108 906.116 12.5372C863.303 -2.13467 818.287 33.3977 790.42 71.5264C785.679 78.017 780.909 84.8699 776.32 91.5114C752.529 125.746 728.013 161.127 688.582 174.954C649.151 188.78 607.939 176.191 568.327 163.844C546.105 156.961 523.039 149.806 500.576 147.391C459.062 142.984 415.012 157.384 379.808 186.969C344.604 216.554 322.865 257.339 320.058 299Z" fill="#00160A"/>
<path opacity="0.1" d="M27.7776 352C18.3742 352.025 9.01711 350.678 0 348.001L0.875578 344.972C48.3089 359.179 97.4934 332.188 127.686 302.197C149.758 280.295 167.42 253.728 184.48 228.312C193.537 215.013 202.595 201.229 212.287 188.233C247.915 140.673 286.23 113.439 326.266 107.38C378.47 99.4435 426.93 127.162 473.789 153.972C520.649 180.781 569.109 208.5 620.648 199.745C653.348 194.232 681.578 174.541 708.903 155.486C733.812 138.068 759.597 120.073 789.126 112.409C839.035 99.4435 898.787 118.316 945.073 161.636C986.951 200.805 1013.91 252.062 1040 301.652L1037.34 303.076C1011.38 253.698 984.505 202.653 943.02 163.726C907.301 130.403 848.334 100.11 789.881 115.257C760.895 122.769 735.322 140.612 710.624 157.88C683.027 177.116 654.525 197.019 621.132 202.653C568.565 211.529 519.623 183.568 472.31 156.516C425.873 129.979 377.836 102.533 326.719 110.289C287.468 116.347 249.817 143.036 214.703 189.96C205.041 202.896 195.862 216.618 186.986 229.887C169.836 255.576 152.082 282.143 129.8 304.257C104.8 329.189 67.0588 352 27.7776 352Z" fill="#00160A"/>
</svg>
