<svg width="1255" height="298" viewBox="0 0 1255 298" fill="none" xmlns="http://www.w3.org/2000/svg">
<path opacity="0.04" d="M490.04 271C444.766 271 402.722 247.185 361.825 224.065C340.879 212.218 319.208 199.887 297.477 191.122C198.177 150.715 73.343 183.778 7.12302 267.948L0 262.326C68.6346 175.105 197.996 140.863 300.797 182.721C323.071 191.787 344.984 204.178 366.172 216.146C414.463 243.498 460.129 269.308 510.775 260.059C552.457 252.443 583.454 223.128 616.413 192.059C642.611 167.277 669.715 141.618 702.976 127.716C743.662 110.731 789.237 113.028 829.44 115.023C868.677 116.987 913.467 119.193 952.04 103.417C986.78 89.1523 1020.77 52.009 1015.21 11.2693L1024.27 10C1030.64 55.7566 994.507 95.8314 955.542 111.789C915.097 128.351 869.371 126.054 829.047 124.029C789.81 122.095 745.322 119.858 706.537 136.118C674.605 149.355 648.105 174.47 622.51 198.648C590.155 229.263 556.743 260.875 512.405 268.975C505.026 270.325 497.541 271.002 490.04 271Z" fill="#00160A"/>
<path opacity="0.1" d="M673.356 298C635.948 298 600.201 274.51 578.191 250.657C559.382 230.221 544.497 206.187 530.307 182.909C521.249 168.277 511.95 153.101 501.715 139.013C431.52 42.3631 304.774 -12.5068 186.362 2.54839L186 -0.474749C246.403 -7.73485 307.646 1.35816 363.346 25.8568C419.364 49.7006 467.962 88.1629 504.07 137.229C514.396 151.408 523.725 166.644 532.783 181.337C547.003 204.464 561.706 228.377 580.335 248.602C606.964 277.503 654.093 306.041 699.26 290.926C727.067 281.645 747.567 258.034 767.192 235.209C788.749 210.238 811.06 184.42 843.064 177.497C877.392 170.091 909.908 186.93 941.368 203.224C969.869 218.007 999.366 233.274 1030.31 230.795C1076.45 227.107 1110.11 186.023 1138.07 147.78L1252.55 -9L1255 -7.21635L1140.57 149.443C1112.25 188.199 1078.08 229.888 1030.64 233.667C998.762 236.207 968.963 220.758 940.07 205.794C907.674 189.016 877.06 173.144 843.818 180.339C812.781 187.05 791.768 211.357 769.547 237.053C749.56 260.21 728.878 284.123 700.287 293.677C691.602 296.565 682.507 298.025 673.356 298Z" fill="#00160A"/>
</svg>
